<mxfile host="app.diagrams.net" modified="2023-09-17T07:09:52.867Z" agent="Mozilla/5.0 (Windows NT 10.0; Win64; x64) AppleWebKit/537.36 (KHTML, like Gecko) Chrome/116.0.0.0 Safari/537.36" version="21.7.5" etag="lYQOKPzvtP1ki8Noz-N1" type="github">
  <diagram name="Page-1" id="foLwJc-I4UzoHyWBbXpE">
    <mxGraphModel>
      <root>
        <mxCell id="0" />
        <mxCell id="1" parent="0" />
      </root>
    </mxGraphModel>
  </diagram>
</mxfile>
